<?xml version="1.0" standalone="no"?>
<!DOCTYPE svg PUBLIC "-//W3C//DTD SVG 20010904//EN"
 "http://www.w3.org/TR/2001/REC-SVG-20010904/DTD/svg10.dtd">
<svg version="1.0" xmlns="http://www.w3.org/2000/svg"
 width="1024.000000pt" height="1024.000000pt" viewBox="0 0 1024.000000 1024.000000"
 preserveAspectRatio="xMidYMid meet">
<metadata>
Created by potrace 1.16, written by Peter Selinger 2001-2019
</metadata>
<g transform="translate(0.000000,1024.000000) scale(0.100000,-0.100000)"
fill="#000000" stroke="none">
<path d="M4630 9770 c0 -5 -15 -10 -34 -10 -35 0 -63 -20 -29 -20 17 -1 17 -1
0 -14 -20 -15 -16 -20 27 -30 27 -7 28 -6 15 10 -12 16 -12 17 1 9 37 -20 41
-27 28 -43 -11 -13 -9 -15 15 -10 15 3 27 1 27 -3 0 -5 7 -9 15 -9 8 0 15 -5
15 -11 0 -5 -5 -7 -12 -3 -7 4 -8 3 -4 -5 4 -6 13 -10 19 -9 7 1 30 -10 52
-26 32 -23 35 -27 15 -22 -14 3 -29 6 -33 6 -5 0 -6 4 -3 9 3 5 -2 15 -11 22
-15 12 -16 12 -10 -5 7 -18 3 -18 -54 -12 -34 3 -86 6 -115 6 -30 0 -54 4 -54
8 0 5 13 7 29 4 16 -2 31 0 34 5 7 10 -55 9 -73 -2 -23 -14 -230 -19 -230 -5
0 6 6 8 13 4 9 -5 9 -4 0 6 -17 19 -40 21 -40 4 0 -7 4 -11 9 -8 4 3 8 1 8 -5
0 -25 -365 -50 -471 -31 -80 14 -157 38 -165 52 -4 7 -2 8 4 4 8 -5 10 -1 5
10 -4 11 -8 13 -11 6 -2 -7 -15 -12 -28 -12 -26 0 -33 -23 -11 -37 12 -8 67
-88 67 -97 0 -3 -7 -3 -15 0 -8 4 -13 10 -10 14 3 5 1 11 -5 15 -6 4 -10 -5
-10 -20 0 -22 4 -25 25 -21 20 4 30 -2 48 -26 12 -17 21 -34 20 -39 -2 -5 2
-9 8 -9 9 0 75 -45 115 -79 7 -6 15 -7 20 -3 4 4 4 1 0 -6 -5 -7 -10 -11 -13
-8 -3 2 -30 -4 -60 -15 -65 -22 -92 -24 -48 -3 l30 14 -37 -2 c-34 -2 -60 -22
-37 -30 5 -2 -21 -16 -58 -32 -37 -16 -128 -60 -201 -97 -73 -38 -138 -66
-144 -63 -7 5 -8 2 -3 -6 6 -10 4 -12 -9 -7 -10 4 -15 3 -11 -3 3 -5 -3 -14
-14 -19 -26 -14 -34 -14 -25 1 4 7 3 8 -5 4 -6 -4 -9 -12 -5 -17 6 -10 -56
-40 -68 -33 -5 3 -8 1 -8 -4 0 -5 -24 -20 -52 -32 -41 -17 -79 -24 -165 -28
-124 -5 -135 -12 -78 -51 19 -13 32 -28 28 -35 -3 -6 -3 -8 2 -4 13 12 34 -11
28 -30 -4 -13 -3 -14 5 -3 8 12 13 12 30 0 10 -8 20 -18 21 -24 2 -5 5 -12 8
-15 4 -3 3 1 -1 8 -9 16 -6 15 40 -5 46 -20 47 -20 80 -22 14 0 23 -5 20 -10
-3 -4 -17 -7 -31 -6 -14 2 -27 0 -30 -4 -4 -7 10 -11 48 -12 9 0 17 -7 17 -14
0 -16 -57 -61 -72 -57 -5 1 -7 -2 -4 -7 4 -5 -7 -19 -24 -31 -16 -12 -30 -18
-30 -14 0 3 -6 1 -13 -5 -8 -6 -17 -9 -20 -6 -4 3 -5 2 -2 -2 3 -3 -3 -16 -12
-27 -10 -12 -2 -8 17 9 l35 30 -34 -37 c-19 -21 -36 -36 -39 -34 -2 3 -17 0
-33 -6 -23 -8 -27 -13 -20 -27 7 -13 1 -26 -27 -57 -20 -22 -56 -62 -79 -90
-65 -77 -95 -110 -88 -96 3 6 1 12 -4 12 -6 0 -11 -11 -11 -24 0 -27 -16 -44
-22 -24 -3 7 -7 5 -11 -6 -4 -11 -3 -15 4 -10 7 4 10 1 7 -7 -3 -8 -11 -13
-17 -11 -7 1 -9 -2 -6 -8 8 -13 -22 -50 -39 -50 -6 0 -17 -10 -25 -22 l-14
-23 23 20 c13 11 3 -9 -23 -45 -25 -36 -51 -64 -57 -62 -7 1 -9 -2 -6 -7 4 -5
-5 -23 -19 -39 -28 -34 -36 -74 -10 -52 10 9 15 9 15 1 0 -6 12 -11 28 -10 24
0 25 1 7 10 -16 7 -12 8 18 6 20 -2 37 0 37 3 0 8 88 32 119 32 14 0 25 7 28
18 3 10 10 21 16 23 7 3 -4 -28 -23 -69 -22 -46 -38 -68 -43 -61 -4 7 -5 0 -1
-15 3 -15 1 -35 -6 -45 -10 -16 -11 -16 -6 0 4 13 0 17 -19 17 -14 0 -25 -5
-25 -11 0 -5 4 -8 9 -5 4 3 6 -6 3 -19 -2 -15 0 -25 7 -25 6 0 11 5 11 12 0 6
2 9 5 7 6 -7 -17 -79 -24 -75 -3 2 -7 -8 -7 -22 -1 -15 -12 -72 -24 -127 -23
-104 -32 -290 -18 -370 6 -29 5 -34 -2 -17 -5 12 -12 22 -14 22 -6 0 8 -41 25
-72 10 -19 12 -20 21 -4 5 9 11 25 13 35 4 22 33 81 40 81 8 0 1 -24 -8 -31
-5 -3 -1 -9 7 -12 14 -5 16 0 13 27 -2 19 2 41 11 52 14 18 14 18 8 -2 -4 -12
-7 -53 -7 -93 -1 -54 -4 -71 -15 -71 -8 0 -14 -5 -14 -11 0 -6 7 -8 17 -5 16
6 16 6 0 -12 -9 -10 -17 -25 -16 -33 0 -8 4 -6 9 6 6 14 9 0 9 -45 1 -45 -2
-60 -9 -50 -6 9 -10 10 -10 3 0 -6 4 -15 10 -18 6 -3 10 -11 10 -16 0 -6 -4
-8 -8 -5 -5 3 -9 -1 -9 -8 0 -8 7 -12 15 -9 11 5 14 -3 11 -40 -2 -26 0 -47 4
-47 5 0 7 -18 5 -40 -2 -22 0 -41 5 -43 5 -1 9 -28 10 -60 1 -31 5 -57 8 -57
3 0 11 -23 17 -51 9 -40 9 -55 1 -66 -9 -11 -9 -17 1 -26 10 -10 12 -9 7 6 -4
9 -3 17 1 17 5 0 16 -23 25 -52 13 -40 14 -54 4 -60 -8 -5 -7 -8 4 -8 16 0 34
-38 24 -49 -3 -2 -5 1 -5 7 0 7 -5 12 -11 12 -5 0 -7 -5 -4 -10 9 -15 -13 -40
-29 -34 -7 3 -19 -3 -27 -13 -13 -17 -13 -17 6 -3 12 9 7 -1 -11 -25 -17 -22
-36 -50 -43 -63 -25 -47 -59 -169 -66 -234 -4 -37 -10 -66 -14 -64 -3 2 -4
-17 -3 -43 2 -26 2 -61 0 -77 l-4 -29 -11 25 c-8 16 -12 19 -12 9 -1 -9 6 -22
13 -29 11 -8 15 -34 15 -98 -1 -140 30 -276 91 -395 45 -89 47 -95 23 -76 -16
13 -17 12 -4 -4 8 -9 16 -15 19 -12 9 9 63 -95 56 -108 -4 -7 -4 -9 1 -5 11
10 38 -29 30 -42 -4 -6 -1 -9 7 -8 8 2 12 -6 10 -22 -1 -18 1 -21 7 -11 13 20
29 -15 26 -56 -1 -22 3 -33 12 -33 16 0 17 12 1 28 -6 6 -9 14 -6 17 9 10 87
-105 82 -120 -3 -7 -1 -16 5 -20 7 -4 9 1 5 12 -3 12 1 10 13 -6 23 -32 82
-89 110 -108 13 -8 20 -19 17 -24 -3 -5 3 -6 12 -2 11 4 15 3 10 -5 -3 -6 -1
-14 5 -18 8 -4 9 -3 5 4 -9 15 -6 15 36 -3 33 -13 35 -17 43 -77 5 -35 9 -82
9 -105 1 -24 5 -43 10 -43 5 0 6 -22 2 -49 -4 -27 -3 -52 2 -55 5 -3 7 7 5 22
-2 15 4 7 12 -18 8 -25 13 -53 11 -63 -2 -9 0 -15 5 -11 5 3 9 -2 9 -11 0 -9
-5 -13 -11 -9 -8 4 -9 -1 -3 -17 4 -13 7 -32 6 -41 0 -9 5 -19 13 -21 9 -4 11
1 9 16 -2 12 3 6 12 -13 9 -19 17 -45 18 -57 0 -11 4 -19 9 -16 4 2 8 -4 9
-14 0 -10 2 -24 2 -31 1 -7 6 -16 11 -20 11 -8 85 -126 85 -137 0 -3 -5 -3
-11 1 -8 5 -8 1 0 -13 6 -11 7 -24 3 -28 -4 -5 -2 -5 5 -1 7 4 10 14 7 24 -9
28 33 -28 60 -82 23 -45 24 -51 11 -76 -14 -27 -14 -28 9 -26 18 2 26 -3 30
-18 8 -31 6 -44 -4 -21 -7 16 -9 17 -9 3 -1 -9 6 -21 15 -26 17 -10 28 -78 13
-87 -5 -4 -9 0 -10 7 0 7 -4 3 -10 -10 -5 -14 -13 -20 -20 -16 -7 4 -9 3 -6
-3 7 -12 -74 -73 -96 -73 -8 0 -18 -7 -21 -16 -4 -10 -2 -13 6 -8 6 4 4 -4 -5
-17 -10 -13 -21 -24 -25 -25 -26 -3 -40 -18 -37 -42 3 -30 -33 -132 -47 -132
-5 0 -7 -4 -4 -8 3 -5 1 -26 -5 -47 -8 -29 -13 -35 -21 -24 -7 10 -8 8 -3 -7
7 -25 -23 -106 -36 -98 -5 3 -6 -3 -2 -12 5 -13 3 -15 -7 -9 -8 5 -11 4 -6 -3
10 -16 -72 -174 -86 -166 -7 4 -8 3 -4 -5 4 -6 0 -14 -8 -17 -9 -3 -16 -12
-16 -20 0 -7 -17 -26 -37 -41 -21 -15 -42 -34 -46 -41 -5 -7 -17 -10 -27 -7
-10 3 -21 1 -25 -4 -3 -7 0 -8 9 -5 9 3 16 3 16 0 0 -14 -258 -135 -278 -130
-11 3 -23 1 -26 -4 -3 -6 3 -8 16 -6 13 2 -13 -13 -57 -34 -43 -22 -87 -37
-96 -35 -9 3 -20 0 -23 -6 -5 -7 0 -9 11 -5 10 3 7 -2 -7 -10 -27 -16 -55 -22
-30 -6 13 8 12 10 -2 10 -10 0 -18 -6 -18 -14 0 -8 -21 -22 -47 -32 -27 -9
-52 -21 -58 -26 -14 -12 -27 -10 -20 5 4 6 0 4 -8 -6 -13 -16 -306 -143 -345
-149 -9 -2 -20 -7 -23 -12 -4 -5 -20 -9 -37 -10 -17 0 -28 -4 -26 -8 6 -10
-34 -20 -47 -12 -7 4 -9 3 -6 -3 9 -14 -184 -86 -209 -77 -14 4 -15 3 -5 -4
10 -7 1 -13 -33 -25 -26 -9 -55 -14 -64 -11 -13 5 -14 4 -4 -4 11 -7 10 -10
-3 -16 -9 -3 -22 -3 -28 1 -7 3 -9 3 -5 -2 4 -4 -36 -27 -90 -50 -53 -23 -126
-56 -160 -74 -35 -18 -61 -27 -57 -22 3 6 -1 11 -9 11 -8 0 -18 -5 -22 -12 -4
-7 -3 -8 4 -4 7 4 12 3 12 -1 0 -13 -59 -45 -70 -38 -6 4 -9 2 -8 -2 2 -5 -25
-33 -59 -61 -34 -28 -64 -56 -68 -61 -3 -6 -11 -9 -18 -7 -7 1 -8 1 -4 -2 13
-7 -44 -61 -58 -56 -7 3 -15 -2 -19 -12 -5 -14 -4 -15 9 -4 8 7 15 8 15 2 0
-12 -25 -34 -32 -27 -2 3 -5 -1 -5 -8 0 -8 -14 -34 -31 -59 -17 -25 -55 -91
-85 -146 -29 -56 -57 -99 -61 -95 -4 5 -6 1 -4 -7 3 -14 -49 -149 -61 -160 -3
-3 -7 -12 -9 -20 -9 -46 -36 -100 -51 -100 -12 0 -13 -2 -3 -8 9 -6 10 -16 1
-40 -6 -18 -15 -32 -21 -32 -5 0 -7 -4 -4 -9 3 -5 2 -22 -3 -37 -5 -16 -21
-74 -36 -129 -15 -55 -30 -102 -33 -105 -3 -3 -2 5 1 18 3 12 2 22 -3 22 -13
0 -19 -37 -7 -49 6 -6 6 -24 -1 -53 -29 -115 -72 -374 -87 -530 l-7 -68 4856
0 c4649 0 4856 1 4856 18 0 10 -7 73 -15 140 -9 68 -12 128 -9 134 4 6 3 8 -3
5 -7 -4 -13 15 -17 51 -4 31 -19 112 -35 178 -16 67 -27 134 -25 150 3 20 2
23 -4 11 -5 -12 -14 7 -31 69 -20 72 -22 88 -10 96 12 8 11 9 -1 5 -11 -3 -21
16 -38 72 -12 41 -19 84 -16 96 4 17 3 17 -6 5 -10 -12 -11 -11 -7 8 3 14 1
20 -6 15 -6 -4 -8 2 -5 15 4 12 2 20 -2 17 -8 -5 -15 13 -35 85 -1 3 -6 16
-13 30 -21 48 -52 123 -52 127 0 2 5 1 10 -2 6 -3 10 -1 10 4 0 6 -6 11 -14
11 -17 0 -41 55 -30 71 4 7 3 10 -3 6 -10 -6 -37 43 -33 59 1 4 -3 10 -8 13
-19 13 -62 92 -56 104 4 7 4 9 -1 5 -9 -9 -35 9 -35 24 0 5 6 6 13 2 7 -4 9
-3 4 2 -5 5 -14 9 -20 9 -7 1 -11 7 -9 14 1 7 -2 10 -7 7 -12 -8 -57 54 -54
74 2 11 1 11 -3 2 -5 -10 -17 -3 -45 24 -21 20 -35 42 -32 47 3 6 1 7 -5 3 -5
-3 -12 -3 -14 1 -1 5 -21 18 -43 30 -22 12 -39 26 -38 32 3 12 -32 33 -50 30
-19 -3 -47 12 -47 26 0 7 -7 16 -16 19 -26 10 -29 7 -8 -9 10 -9 -2 -6 -28 7
-26 12 -45 25 -42 30 3 4 -1 5 -9 3 -7 -3 -28 8 -45 25 -18 16 -37 30 -44 30
-7 0 1 -9 17 -20 17 -11 27 -20 24 -20 -13 0 -124 54 -130 63 -3 5 -8 7 -10 6
-8 -7 -99 33 -99 42 0 6 -4 8 -9 5 -13 -8 -72 14 -65 25 3 5 -1 6 -9 4 -7 -3
-58 13 -113 35 -54 22 -85 38 -67 35 17 -4 34 -2 36 3 3 4 -14 9 -39 9 -63 2
-66 2 -60 11 3 5 -7 9 -22 9 -41 0 -346 124 -330 134 9 6 5 8 -12 7 -34 -2
-121 32 -113 45 3 5 1 7 -4 4 -15 -9 -74 13 -67 25 3 5 0 8 -7 7 -23 -5 -159
53 -152 64 3 6 1 7 -4 4 -12 -7 -196 70 -201 84 -2 5 -14 9 -26 9 -26 0 -158
57 -167 72 -3 5 -12 8 -20 6 -8 -2 -13 2 -12 8 1 7 -5 10 -15 8 -9 -3 -91 24
-181 60 l-165 64 -24 47 c-13 26 -21 54 -18 62 3 7 2 12 -3 8 -11 -6 -53 49
-44 59 3 3 1 6 -5 6 -16 0 -44 58 -36 72 4 6 3 8 -3 5 -11 -7 -46 60 -38 73 3
4 1 10 -5 12 -16 5 -51 118 -45 141 4 15 3 18 -3 9 -11 -17 -35 58 -26 84 5
16 4 16 -5 4 -6 -9 -11 -10 -11 -4 0 7 -16 35 -35 64 -19 29 -32 57 -28 63 3
5 2 8 -3 5 -5 -3 -29 12 -54 34 -25 22 -39 37 -32 34 23 -13 12 2 -15 20 -26
16 -27 16 -14 0 13 -16 12 -16 -12 -5 -15 7 -27 16 -27 21 0 5 -4 7 -10 3 -5
-3 -25 1 -44 9 l-36 15 6 68 c8 116 33 250 57 315 13 35 36 107 52 160 15 54
32 95 36 92 5 -3 6 1 3 9 -3 8 4 56 15 108 10 52 22 119 26 150 4 31 10 61 14
67 4 6 44 12 94 13 48 2 82 6 76 9 -11 7 49 37 64 32 5 -1 6 2 3 7 -6 10 22
26 39 22 6 -2 7 1 3 5 -4 4 14 32 41 63 26 31 60 74 74 96 15 22 33 40 40 40
6 0 11 8 9 18 -2 10 7 31 18 47 12 16 58 103 104 192 113 224 131 298 131 543
-1 140 -5 194 -19 244 -9 35 -15 70 -12 78 3 8 1 11 -4 8 -6 -3 -10 -1 -10 4
0 6 -14 41 -32 78 -18 38 -31 75 -30 83 2 12 1 12 -6 2 -7 -10 -13 -6 -28 15
-10 15 -17 31 -16 35 1 5 -1 7 -6 6 -4 0 -15 2 -25 7 -15 6 -16 10 -5 16 10 7
10 9 1 9 -7 0 -13 5 -13 11 0 5 5 7 10 4 6 -3 10 -1 10 4 0 6 -4 11 -10 11 -5
0 -7 8 -4 18 5 14 4 15 -5 2 -6 -8 -11 -26 -11 -40 0 -19 -2 -22 -9 -10 -6 8
-8 17 -5 21 2 4 17 74 33 156 34 170 51 316 51 445 0 49 4 87 9 84 5 -3 11 5
13 18 4 17 1 23 -9 19 -9 -4 -13 3 -12 23 0 25 1 26 9 9 8 -18 9 -18 10 5 0
21 2 22 10 8 6 -9 12 -30 14 -47 3 -26 26 -61 40 -61 3 0 8 22 12 49 4 32 11
48 18 45 6 -2 12 5 13 16 1 11 -2 18 -8 15 -5 -4 -9 41 -9 112 -1 65 -7 154
-15 198 -16 89 -18 110 -5 80 6 -15 8 -9 7 23 -1 32 -6 42 -18 42 -20 0 -63
127 -53 156 4 13 3 15 -3 6 -7 -9 -12 -7 -21 12 -10 22 -9 24 13 21 14 -1 22
1 20 5 -3 5 5 6 17 2 12 -3 17 -7 10 -10 -23 -7 -12 -20 22 -24 19 -2 32 0 30
4 -3 4 -1 8 5 8 5 0 13 -4 16 -10 8 -13 75 -13 75 0 0 5 -15 31 -34 57 -43 62
-88 151 -81 163 3 5 0 12 -6 16 -8 4 -9 3 -5 -4 4 -7 5 -12 2 -12 -11 0 -46
79 -37 82 6 2 3 12 -6 23 l-16 20 7 -20 c6 -20 6 -20 -9 0 -9 11 -14 24 -11
31 2 6 0 17 -6 25 -7 11 -8 9 -3 -6 10 -31 -7 -9 -58 78 -43 72 -50 94 -18 65
11 -11 11 -9 1 10 -6 13 -17 21 -24 19 -6 -3 -22 11 -35 30 -12 19 -17 32 -11
28 9 -6 9 -2 1 14 -7 11 -14 21 -17 21 -3 0 -2 -5 2 -12 15 -24 -16 4 -38 34
-12 17 -17 29 -11 25 6 -4 10 -1 9 5 -3 21 -16 38 -29 37 -9 0 -9 -2 1 -6 6
-2 12 -10 12 -16 -1 -7 -16 5 -35 27 -19 21 -32 43 -28 49 3 6 1 7 -4 4 -13
-8 -36 17 -25 27 4 4 0 6 -8 4 -8 -2 -14 3 -12 10 1 8 -2 11 -7 7 -6 -3 -27
10 -48 30 l-38 35 30 -5 c17 -4 58 -14 92 -23 52 -14 60 -19 50 -31 -10 -12
-9 -12 10 -1 25 16 25 25 -2 55 -11 12 -40 46 -64 75 -34 41 -39 50 -20 40 17
-9 21 -9 13 -1 -6 7 -18 13 -25 14 -24 4 -40 18 -33 29 4 7 2 8 -4 4 -6 -3
-35 12 -64 34 -29 22 -88 57 -130 77 -42 20 -75 40 -73 43 2 3 -6 6 -18 6 -12
0 -47 5 -77 12 -30 6 -93 16 -140 21 -47 5 -94 13 -104 17 -12 5 -17 4 -13 -3
6 -9 -41 -23 -79 -23 -6 0 -19 29 -28 65 -9 36 -34 104 -56 151 -21 46 -37 92
-34 102 4 12 3 13 -3 4 -7 -9 -13 -5 -24 15 -8 16 -24 43 -36 62 -13 18 -20
38 -16 44 3 5 1 7 -5 3 -11 -7 -55 47 -46 57 3 3 1 14 -6 24 -11 17 -11 17 -5
-2 5 -16 1 -15 -24 9 -16 15 -28 33 -27 40 2 6 1 7 -2 3 -2 -5 -15 2 -28 14
-13 12 -21 27 -17 33 3 6 3 8 -2 4 -12 -11 -35 11 -28 28 3 8 0 14 -7 14 -6 0
-8 -4 -5 -10 13 -20 -14 -9 -29 12 -9 12 -16 19 -16 14 0 -5 -7 -3 -16 5 -14
11 -14 13 0 21 9 5 16 14 16 21 0 7 -4 6 -10 -3 -6 -9 -10 -11 -10 -3 0 7 -7
10 -15 7 -8 -4 -12 -10 -9 -15 3 -5 1 -9 -5 -9 -5 0 -14 8 -20 18 -9 15 -10
15 -8 -5 0 -12 5 -19 9 -17 4 3 8 0 8 -6 0 -6 11 -26 24 -43 14 -18 29 -46 35
-62 10 -26 9 -28 -3 -12 -16 20 -30 23 -23 3 3 -7 1 -18 -5 -24 -7 -7 -5 -10
8 -8 11 2 22 -2 26 -8 5 -7 8 -6 8 4 0 13 1 13 10 0 13 -20 13 -33 0 -25 -6 3
-7 -1 -4 -9 3 -9 10 -13 15 -10 9 5 14 -22 11 -61 -2 -15 0 -16 7 -7 6 10 10
4 15 -18 10 -54 7 -70 -13 -70 -10 0 -25 7 -32 17 -8 9 -44 42 -81 74 -36 31
-63 61 -60 65 4 4 2 5 -3 1 -6 -3 -33 7 -60 23 -28 17 -45 30 -39 30 7 0 15 7
18 16 5 14 4 15 -9 4 -8 -7 -15 -9 -15 -4 0 5 -4 3 -9 -4 -6 -11 -15 -10 -44
4 -20 10 -34 21 -31 26 3 4 -1 5 -9 2 -8 -3 -19 5 -26 18 -6 13 -9 15 -7 6 7
-22 13 -23 -70 6 -38 13 -96 31 -129 41 -45 12 -63 23 -72 41 -6 13 -8 22 -5
20 4 -2 16 0 27 5 18 7 17 8 -5 8 -15 1 -32 -5 -39 -11 -11 -10 -13 -10 -7 0
5 8 0 12 -16 12 -19 0 -20 -2 -8 -11 11 -8 4 -9 -30 -6 l-45 5 40 -14 40 -14
-35 5 c-19 3 -53 9 -75 12 l-40 7 35 8 c27 5 22 6 -20 3 -75 -5 -198 16 -193
33 3 6 2 12 -1 12 -3 0 -6 -4 -6 -10z m250 -100 c340 -72 541 -152 671 -267
78 -69 172 -184 203 -247 7 -15 16 -24 18 -20 3 5 0 63 -7 129 -12 113 -40
225 -72 288 -29 57 7 27 104 -88 105 -125 191 -296 227 -455 29 -127 39 -210
26 -225 -7 -9 -8 -15 -2 -15 26 0 34 31 27 108 l-7 79 124 1 c150 1 206 -8
326 -54 112 -43 184 -90 279 -182 l73 -70 -48 14 c-26 8 -94 21 -152 29 -58 9
-113 18 -124 21 -43 14 -2 -15 51 -36 32 -13 88 -47 124 -76 161 -131 257
-262 473 -649 36 -66 74 -130 82 -142 l16 -23 -53 24 c-95 42 -243 118 -274
141 -16 12 -39 25 -50 28 -12 4 -8 -1 10 -15 58 -42 134 -127 161 -179 80
-159 122 -335 130 -544 l5 -150 -40 84 c-23 46 -41 89 -41 95 0 16 -58 136
-66 136 -3 0 -3 -11 0 -24 8 -33 -9 -42 -28 -14 -11 15 -12 24 -5 29 7 4 8 9
1 13 -5 3 -13 18 -16 32 -8 31 -63 115 -83 127 -7 4 -13 12 -13 18 0 5 -11 22
-25 37 -14 15 -25 32 -25 37 0 15 -90 138 -96 132 -3 -3 6 -23 19 -44 40 -62
85 -157 80 -169 -2 -6 10 -43 27 -82 16 -39 30 -79 30 -89 0 -14 2 -15 9 -4 6
9 11 10 15 2 4 -6 1 -14 -8 -17 -8 -3 -12 -12 -9 -21 5 -12 7 -12 14 -1 7 10
9 10 9 -2 1 -33 10 -129 18 -200 21 -182 8 -543 -23 -629 -12 -33 -13 -29 -9
57 3 58 0 92 -6 92 -5 0 -9 4 -7 9 1 5 -10 22 -24 38 -14 16 -24 34 -21 41 2
7 -4 12 -12 12 -15 0 -49 33 -99 96 -17 22 -18 27 -6 35 16 10 15 11 -31 13
l-35 2 -41 119 c-22 66 -55 158 -73 205 -18 47 -36 101 -41 120 -13 56 -40
124 -53 133 -7 5 -2 5 13 1 14 -4 27 -11 28 -16 5 -11 77 -48 96 -48 11 0 9 6
-8 25 -12 13 -28 42 -35 65 -6 22 -17 40 -23 40 -7 0 -6 -5 2 -15 9 -10 9 -15
1 -15 -6 0 -12 6 -12 13 -1 6 -2 17 -3 22 -1 13 -47 93 -101 175 -39 61 -199
251 -217 258 -4 2 -8 10 -8 17 0 8 -4 16 -10 20 -5 3 -3 -16 5 -42 9 -26 22
-73 31 -103 9 -30 22 -62 29 -70 22 -27 115 -200 136 -253 48 -122 103 -316
113 -402 3 -22 12 -89 20 -149 9 -60 15 -121 15 -135 -2 -27 -5 -10 -38 214
-45 299 -102 466 -232 680 -26 44 -51 94 -54 110 -4 17 -16 58 -27 92 -11 35
-16 68 -12 74 5 8 3 9 -6 4 -10 -6 -12 -4 -7 9 4 9 3 15 -2 11 -5 -3 -17 15
-27 40 -20 52 -73 140 -80 132 -3 -2 4 -20 15 -38 31 -53 79 -175 108 -274 22
-75 26 -111 27 -220 1 -153 -5 -245 -15 -218 -4 10 -17 50 -29 88 -31 97 -121
274 -189 370 -30 44 -91 119 -134 167 -62 70 -85 89 -113 94 -43 8 -241 -19
-303 -41 -42 -15 -47 -14 -109 11 -36 14 -95 32 -131 39 -36 7 -55 14 -41 14
33 1 132 -25 187 -49 39 -17 47 -17 81 -5 28 10 31 14 15 14 -14 1 -23 7 -23
17 0 30 -23 93 -31 88 -5 -3 -6 1 -3 9 6 17 -62 79 -119 108 -53 28 -190 44
-244 30 -73 -20 -241 -146 -364 -273 -38 -39 -130 -180 -192 -293 -83 -153
-88 -163 -78 -169 5 -3 43 45 84 107 41 61 93 133 116 158 22 26 38 49 36 53
-3 3 -2 4 1 2 3 -3 39 24 80 58 122 105 252 158 373 155 35 -1 27 -4 -32 -10
-102 -11 -172 -38 -263 -101 -146 -100 -290 -276 -402 -490 -39 -73 -42 -63
-42 153 0 204 24 360 82 534 39 120 113 257 144 269 8 3 12 10 9 16 -3 5 -3
10 2 10 9 0 103 87 103 96 0 3 -21 -10 -46 -28 -101 -72 -225 -231 -241 -308
-3 -16 -9 -28 -13 -25 -5 3 -13 -9 -19 -25 -18 -53 -93 -129 -173 -177 -43
-26 -78 -50 -78 -55 0 -4 -19 -20 -41 -35 -23 -15 -37 -29 -31 -31 6 -2 -7
-22 -28 -45 -21 -23 -69 -77 -105 -119 -37 -43 -71 -76 -75 -73 -4 3 -8 -5 -8
-18 0 -12 -5 -40 -10 -62 l-11 -39 42 49 c94 113 219 214 358 289 47 25 90 46
95 46 5 0 -29 -21 -75 -46 -47 -25 -114 -66 -149 -91 -83 -59 -212 -187 -251
-248 -36 -57 -37 -51 -20 85 25 205 79 323 213 469 53 58 93 107 91 109 -10
10 -215 -197 -215 -217 0 -5 -47 -56 -104 -114 -183 -185 -289 -337 -351 -504
l-32 -84 -7 130 c-8 158 -2 253 29 441 13 80 32 192 41 250 20 133 49 239 84
313 16 31 24 57 19 57 -9 0 -29 -41 -84 -175 -39 -96 -43 -110 -50 -165 -10
-69 -28 -140 -37 -140 -5 0 -7 10 -3 23 5 17 4 19 -4 6 -5 -8 -12 -27 -15 -42
-12 -68 -129 -262 -337 -561 -34 -49 -62 -96 -62 -105 0 -9 -3 -18 -7 -21 -4
-3 -27 -43 -51 -90 -24 -47 -50 -90 -57 -95 -10 -8 -9 -11 8 -12 11 -1 18 2
15 6 -2 5 2 14 10 21 8 7 15 18 15 25 0 7 8 16 18 20 22 8 28 6 24 -9 -1 -7 5
-19 13 -26 8 -7 15 -17 15 -23 0 -7 -4 -7 -12 1 -19 19 -26 14 -20 -14 3 -19
1 -25 -7 -20 -6 4 -8 12 -5 18 4 7 2 8 -4 4 -7 -4 -9 -19 -6 -35 3 -16 2 -31
-3 -34 -5 -3 -8 -19 -7 -36 1 -18 -3 -29 -10 -28 -6 1 -11 -7 -11 -18 0 -11
-15 -30 -35 -44 -19 -13 -27 -21 -18 -18 12 4 15 2 11 -9 -6 -17 -40 -19 -46
-1 -2 6 -8 8 -13 4 -5 -5 -1 -13 9 -18 9 -6 17 -17 17 -25 0 -8 -5 -12 -11 -9
-6 4 -10 1 -8 -6 4 -30 -2 -37 -28 -34 -16 1 -30 -1 -33 -6 -3 -4 -12 -4 -20
1 -12 7 -12 12 -2 22 15 15 16 32 2 23 -17 -11 1 48 19 62 14 11 13 12 -9 13
-18 0 -21 3 -11 9 7 5 10 14 7 20 -4 6 -3 11 2 11 15 0 35 95 34 162 0 32 3
58 8 58 4 0 8 6 7 13 -2 59 6 98 23 118 18 21 19 21 14 4 -6 -17 -3 -17 19 5
22 22 23 26 9 38 -9 7 -11 12 -4 12 7 0 12 4 12 10 0 16 -29 -1 -35 -21 -4
-10 -14 -19 -23 -18 -11 0 -12 3 -4 6 6 2 12 11 12 18 0 8 10 21 22 29 19 13
19 16 5 22 -20 7 -46 -17 -52 -48 -3 -12 -9 -26 -15 -32 -5 -5 -10 -17 -10
-25 1 -13 4 -12 15 3 8 11 15 15 15 9 0 -7 -4 -15 -10 -18 -5 -3 -17 -21 -26
-40 -9 -19 -23 -35 -30 -35 -8 0 -14 -9 -14 -20 0 -11 -4 -20 -10 -20 -11 0
-3 51 16 99 20 48 18 48 -21 7 -32 -34 -40 -37 -36 -13 1 5 -3 6 -9 2 -5 -3
-10 -12 -10 -19 0 -7 -13 -23 -30 -36 -35 -27 -38 -37 -9 -35 11 1 29 15 40
31 26 40 24 20 -2 -23 -14 -23 -24 -31 -29 -23 -5 8 -9 7 -13 -4 -4 -9 -2 -16
4 -16 6 0 7 -5 4 -10 -4 -6 -11 -7 -17 -4 -7 5 -8 2 -3 -6 5 -8 2 -17 -7 -24
-8 -6 -20 -20 -26 -31 -9 -16 -11 -6 -12 57 0 163 44 352 140 593 59 149 76
176 182 300 43 49 78 94 77 100 0 5 -28 -21 -62 -60 -148 -167 -221 -221 -332
-250 -90 -24 -91 -21 -25 60 34 41 74 92 89 114 111 166 383 450 541 565 164
118 201 148 196 154 -3 2 -11 0 -18 -6 -7 -5 -35 -23 -63 -38 -83 -46 -214
-34 -335 32 -70 38 -72 54 -7 54 72 0 196 46 311 114 130 78 377 195 515 245
l114 41 246 4 c135 2 255 5 266 6 41 5 -84 18 -180 19 -55 1 -125 7 -155 15
-33 9 -62 11 -74 6 -16 -7 -11 -9 22 -9 23 -1 42 -5 42 -9 0 -14 -111 -1 -165
19 -64 24 -137 84 -196 163 -26 33 -46 62 -45 63 2 2 21 -6 44 -17 93 -45 157
-48 552 -19 182 12 429 7 530 -11 83 -16 199 -54 272 -91 32 -16 60 -29 63
-29 20 0 -18 25 -112 75 -59 31 -125 71 -145 88 -125 105 -148 127 -126 122
13 -3 88 -19 168 -35z m436 -1483 l90 -35 70 24 c38 13 90 24 117 24 43 0 185
-32 211 -47 47 -28 226 -232 226 -257 0 -4 14 -28 31 -52 43 -63 103 -195 134
-298 16 -53 31 -86 38 -83 17 5 36 135 36 251 l1 100 30 -48 c72 -114 133
-260 175 -424 32 -122 65 -347 65 -447 1 -58 6 -91 20 -120 36 -74 20 -61 -30
26 -28 48 -58 93 -67 100 -15 13 -15 12 -6 -6 6 -11 28 -47 47 -80 43 -71 90
-210 106 -315 6 -41 13 -172 17 -290 8 -324 -20 -534 -137 -1002 -77 -311
-136 -519 -166 -587 -14 -30 -22 -56 -19 -59 5 -5 65 120 65 135 0 5 11 43 25
86 29 94 155 584 185 722 40 189 61 358 67 550 5 168 -6 402 -23 485 -4 18 -3
21 4 10 16 -25 32 -236 32 -421 0 -159 -14 -329 -40 -484 -12 -75 -12 -75 1
-75 5 0 7 5 3 12 -4 7 -3 8 4 4 19 -11 14 -36 -6 -36 -14 0 -21 -13 -30 -57
-6 -32 -14 -69 -18 -82 -7 -22 -6 -23 8 -11 8 8 13 22 10 32 -3 11 1 18 11 18
18 0 30 -27 15 -32 -7 -3 -8 -10 -3 -18 6 -10 10 -8 17 10 11 30 21 20 13 -13
-6 -22 -10 -24 -29 -17 -17 6 -23 5 -23 -6 0 -9 7 -12 18 -9 9 3 20 1 24 -5 3
-5 -2 -10 -12 -10 -11 0 -14 -3 -7 -8 6 -4 11 -22 10 -40 -1 -17 3 -32 7 -32
5 0 7 12 6 28 -2 15 -1 32 3 37 3 6 11 48 17 95 7 47 15 101 18 120 3 19 7 42
8 50 6 33 38 160 60 235 13 44 35 123 50 175 42 156 117 285 188 325 11 7 26
44 43 110 13 55 27 109 30 120 4 16 14 139 16 205 0 8 5 21 11 28 6 8 5 12 -4
12 -12 0 -12 2 0 9 9 6 10 11 2 15 -6 4 -11 13 -11 19 0 7 4 6 10 -3 16 -25
12 139 -6 242 -9 51 -17 98 -18 103 -1 6 -5 16 -9 23 -5 7 -3 12 5 13 10 0 10
2 1 6 -8 3 -13 23 -13 51 0 40 4 49 25 58 23 11 25 10 32 -25 13 -60 9 -557
-5 -641 -20 -119 -74 -331 -86 -340 -110 -86 -159 -173 -217 -392 -23 -84 -52
-192 -65 -241 -13 -48 -28 -126 -35 -175 -6 -48 -24 -157 -40 -242 -43 -234
-77 -452 -89 -580 -23 -241 -53 -363 -150 -605 -46 -115 -81 -173 -199 -330
-59 -77 -123 -167 -145 -200 -21 -33 -70 -98 -110 -145 -39 -47 -80 -96 -91
-109 -167 -201 -335 -367 -448 -444 -59 -40 -138 -79 -145 -73 -3 3 -1 6 4 6
23 0 154 88 234 156 121 102 184 169 175 185 -5 7 -4 10 2 6 11 -7 87 70 158
159 22 27 59 72 83 99 24 28 52 59 61 70 10 11 37 49 61 85 24 36 94 133 156
215 108 145 184 271 184 307 0 9 4 19 9 22 5 3 11 17 13 31 3 14 1 22 -5 18
-9 -6 -2 72 10 103 3 8 0 14 -6 14 -6 0 -11 5 -11 11 0 5 3 8 8 6 4 -3 8 27 9
66 2 38 0 68 -3 65 -5 -6 -15 -60 -17 -98 -1 -14 -4 -27 -7 -30 -3 -3 -12 -45
-19 -95 -11 -81 -17 -97 -59 -158 -33 -48 -50 -66 -61 -62 -13 5 -13 4 -4 -6
9 -9 8 -18 -7 -39 -10 -14 -22 -39 -26 -54 -3 -15 -13 -30 -20 -33 -8 -3 -14
-11 -14 -18 0 -7 -4 -15 -8 -17 -5 -1 -23 -29 -41 -60 -18 -32 -36 -60 -42
-63 -24 -16 -213 -279 -230 -322 -6 -15 -13 -23 -16 -16 -2 7 -13 2 -29 -13
-26 -27 -31 -39 -11 -29 6 4 -1 -6 -18 -22 -16 -16 -43 -45 -58 -66 -15 -20
-34 -37 -41 -37 -16 0 -49 -36 -70 -77 -18 -35 -59 -79 -96 -103 -13 -8 -32
-23 -42 -32 -10 -10 -21 -18 -26 -18 -4 0 -31 -16 -59 -35 -29 -19 -55 -35
-59 -35 -4 0 -28 -13 -53 -29 -81 -52 -402 -94 -542 -71 -41 6 -85 13 -97 15
-13 2 -30 9 -38 16 -7 6 -21 8 -30 5 -23 -9 -105 30 -99 46 6 15 -49 62 -85
73 l-25 7 23 -17 c23 -17 32 -42 10 -28 -18 11 -38 13 -38 3 0 -9 39 -23 60
-20 9 1 6 -5 -8 -15 -21 -16 -48 -12 -37 5 3 4 -3 6 -13 3 -10 -2 -24 3 -31
11 -11 13 -11 16 -1 16 8 0 11 3 8 6 -4 3 -9 5 -12 5 -17 -3 -97 112 -125 179
-6 14 -15 32 -20 40 -18 27 -64 141 -64 156 0 8 -4 14 -9 14 -4 0 -8 9 -8 20
0 25 -28 95 -35 88 -3 -3 10 -48 28 -102 19 -53 30 -96 26 -96 -4 0 -12 7 -17
16 -8 15 -10 15 -15 0 -4 -10 -3 -15 3 -11 6 3 10 -3 10 -14 0 -12 9 -26 19
-33 18 -11 18 -13 3 -26 -16 -13 -16 -13 2 -8 13 5 17 2 12 -9 -3 -8 -1 -15 5
-15 6 0 7 -5 3 -12 -5 -8 -17 0 -35 22 -16 19 -27 36 -24 38 2 2 -19 39 -48
81 -29 42 -86 150 -127 241 -41 91 -77 167 -81 170 -3 3 -6 12 -6 20 -1 8 -8
43 -18 78 -9 34 -17 71 -18 82 -1 11 -5 20 -9 20 -11 0 -11 0 8 -81 9 -38 13
-77 10 -85 -3 -8 5 -33 19 -54 29 -45 35 -91 10 -70 -8 7 -15 9 -15 6 0 -4 -5
-4 -11 0 -8 4 -7 9 2 15 10 6 8 9 -8 9 -13 0 -23 4 -23 9 0 5 10 12 23 14 17
4 16 5 -5 4 -22 -2 -37 10 -84 67 -45 54 -54 70 -43 78 11 7 9 8 -5 4 -22 -7
-87 47 -129 108 -16 23 -37 51 -48 62 -11 12 -20 28 -19 35 4 27 0 38 -26 68
-14 17 -23 35 -19 41 3 5 2 10 -2 10 -5 0 -10 17 -11 38 -1 20 -14 83 -29 139
-19 77 -31 104 -44 108 -11 4 -19 13 -19 21 0 8 -4 12 -10 9 -6 -4 -7 1 -3 11
4 12 2 15 -8 12 -8 -3 -13 -15 -11 -28 2 -13 -1 -20 -6 -16 -6 3 -13 0 -16 -6
-3 -7 -5 1 -3 19 2 18 0 30 -5 27 -4 -3 -8 4 -8 15 0 12 5 21 10 21 6 0 10 -4
10 -10 0 -5 5 -10 11 -10 6 0 9 6 6 14 -3 8 -1 16 5 18 8 3 7 10 -1 26 -12 22
-41 31 -41 11 0 -5 3 -8 8 -6 4 3 13 -2 21 -11 13 -13 12 -14 -11 -10 -18 3
-25 0 -26 -11 -3 -42 24 -168 58 -276 46 -144 60 -176 100 -235 16 -25 30 -49
30 -54 0 -5 -20 22 -45 59 -45 69 -121 277 -145 395 -17 88 -40 300 -39 360
l1 55 8 -55 c9 -61 19 -158 20 -178 0 -7 4 -11 9 -8 5 3 7 16 4 27 -5 18 -3
20 16 14 12 -4 21 -2 21 4 0 6 -9 11 -20 11 -13 0 -20 6 -19 18 0 10 3 12 6 5
8 -20 33 -16 27 5 -3 9 2 6 10 -8 l16 -25 -3 25 c-1 14 -11 31 -22 38 -16 10
-16 12 -2 8 22 -7 22 13 0 31 -10 8 -13 12 -7 9 7 -3 14 1 18 9 3 8 1 15 -5
15 -6 0 -8 4 -5 9 3 4 1 22 -3 39 -6 21 -5 36 4 49 11 16 6 38 -31 152 -24 73
-44 142 -44 153 0 11 -4 27 -9 36 -5 9 -11 42 -15 72 -4 39 4 17 29 -75 57
-217 171 -565 209 -635 7 -14 19 -42 26 -63 14 -44 45 -104 37 -72 -3 11 -15
45 -27 75 -80 204 -189 532 -209 631 -5 24 -23 105 -40 179 -68 301 -105 653
-105 1020 -1 302 12 424 64 606 23 80 23 77 10 69 -13 -8 -13 -8 10 53 11 28
16 52 11 52 -8 0 -18 -20 -42 -92 -7 -20 -17 -35 -21 -32 -5 3 -4 11 1 18 6 7
13 50 17 97 18 234 123 563 232 722 l19 28 6 -188 c4 -103 10 -204 15 -223 l9
-35 17 37 c9 21 16 42 16 49 0 17 75 172 116 242 21 34 66 98 100 142 69 88
201 222 189 190 -35 -88 -57 -201 -62 -317 -3 -73 -2 -128 3 -128 5 1 20 23
34 51 34 71 141 189 232 257 115 86 270 174 282 161 2 -2 0 -26 -4 -54 -17
-102 -8 -351 16 -428 4 -14 20 7 61 80 121 214 238 362 362 457 119 92 198
118 341 112 91 -3 117 -8 196 -39z m-2476 -1953 c31 -44 85 -154 100 -204 41
-131 59 -202 54 -214 -3 -8 13 -53 35 -101 23 -47 49 -112 58 -145 9 -33 17
-59 19 -58 1 2 -2 37 -6 78 -5 41 -11 116 -14 165 -4 78 -4 82 4 30 5 -33 12
-94 15 -135 4 -41 16 -122 26 -180 11 -58 22 -121 24 -140 l5 -35 -14 40 -15
40 4 -35 c2 -19 9 -73 14 -120 6 -47 13 -121 16 -165 7 -94 13 -141 20 -172 3
-13 1 -23 -3 -23 -5 0 -14 46 -21 103 -18 168 -34 349 -35 397 -1 25 -3 47 -7
50 -3 3 -15 48 -28 100 -28 118 -160 406 -231 502 -74 100 -116 119 -148 67
-20 -32 -41 -166 -32 -206 12 -49 24 -56 16 -8 -4 30 -3 35 4 18 5 -13 14 -23
20 -23 6 0 8 -4 5 -10 -3 -5 -1 -10 4 -10 6 0 11 -7 11 -15 0 -8 5 -15 10 -15
6 0 11 19 11 43 1 23 5 56 9 72 9 33 3 -80 -6 -125 -3 -14 -2 -22 2 -18 4 5
15 -10 25 -32 10 -22 23 -40 29 -40 6 0 8 -4 5 -10 -9 -15 7 -12 29 5 21 16
72 20 80 7 2 -4 -10 -6 -28 -4 -25 3 -39 -2 -55 -19 -33 -36 -63 -127 -65
-199 -1 -62 3 -73 61 -190 66 -133 153 -244 175 -222 34 34 27 218 -18 472
-13 69 5 23 21 -55 20 -97 38 -123 33 -48 -1 29 0 49 4 45 13 -13 39 -206 48
-352 5 -80 13 -172 19 -205 14 -79 20 -230 11 -245 -6 -9 -14 -8 -37 3 -47 25
-165 140 -208 203 -22 33 -52 75 -67 94 -48 61 -187 329 -211 407 -53 167 -40
559 23 726 37 96 94 155 152 157 9 0 31 -21 48 -46z m4226 30 c63 -30 120
-122 153 -246 22 -80 44 -278 36 -324 -2 -16 -6 -65 -9 -109 -3 -44 -17 -118
-31 -165 -14 -47 -29 -94 -32 -105 -6 -18 -31 -65 -136 -249 -22 -37 -73 -102
-113 -143 -41 -42 -73 -77 -71 -80 2 -2 28 18 58 44 l54 48 -47 -60 c-26 -33
-58 -66 -70 -74 -114 -72 -133 -81 -179 -81 -65 0 -83 19 -74 79 14 108 48
314 66 411 46 251 56 289 94 365 14 28 23 41 19 30 -3 -11 -8 -33 -9 -50 -2
-16 -10 -75 -19 -130 -22 -147 -29 -252 -16 -260 6 -3 8 -10 5 -15 -3 -4 4 -6
16 -3 11 3 32 24 46 47 15 22 47 67 72 98 94 118 95 119 80 128 -11 7 -10 10
5 16 17 6 18 15 13 79 -4 39 -13 87 -20 106 -8 19 -12 41 -10 49 4 12 3 13 -5
1 -8 -11 -12 -10 -21 6 -5 11 -7 23 -3 27 3 4 -2 4 -12 0 -14 -5 -17 -4 -12 4
4 7 3 12 -3 12 -12 0 -41 -52 -41 -74 0 -8 -4 -17 -9 -21 -6 -3 -7 6 -2 22 17
59 41 103 54 103 8 0 20 7 27 15 7 8 17 15 22 15 6 0 5 -7 -2 -15 -8 -9 -9
-15 -2 -15 6 0 14 5 17 11 4 6 13 8 21 5 7 -3 16 -1 19 4 3 4 -1 10 -7 13 -7
2 -10 7 -7 11 4 4 13 1 20 -7 8 -7 20 -12 27 -9 7 2 12 -6 12 -23 0 -14 4 -24
9 -21 4 3 5 27 1 53 -5 27 -11 71 -13 98 -5 46 -5 48 6 20 8 -21 18 -30 30
-27 24 5 24 101 -1 132 -15 18 -21 20 -46 11 -27 -11 -28 -12 -12 -36 9 -13
16 -30 16 -37 0 -7 -8 3 -19 22 -21 40 -19 47 16 61 21 8 30 6 48 -11 25 -24
36 -74 36 -172 1 -49 3 -59 11 -44 6 11 11 51 11 90 1 58 -4 80 -26 123 -15
28 -31 54 -36 57 -16 10 -82 -19 -114 -51 -50 -49 -109 -156 -169 -308 -31
-77 -59 -150 -63 -163 -15 -51 -13 -12 4 63 101 439 197 665 283 665 11 0 35
-7 54 -16z m-710 -2401 c-14 -47 -29 -371 -30 -669 l-1 -331 -47 -94 c-55
-111 -196 -327 -296 -454 -156 -198 -407 -429 -707 -649 -119 -88 -343 -287
-518 -460 -110 -108 -200 -196 -202 -196 -1 0 -6 17 -10 37 -10 52 -156 342
-219 432 -53 78 -139 169 -338 356 -157 148 -228 264 -290 471 -30 101 -32
120 -32 254 0 80 1 179 2 220 2 71 -12 326 -22 380 -2 14 -7 43 -10 65 -3 22
-13 81 -22 130 -9 50 -22 122 -29 161 -7 39 -18 82 -24 95 l-12 24 18 -24 c10
-14 35 -41 57 -60 74 -69 316 -348 316 -366 0 -9 -19 12 -53 58 -16 21 -37 45
-46 55 -10 9 -42 46 -71 82 -54 65 -164 180 -174 180 -3 0 -3 -15 0 -32 12
-71 15 -82 23 -70 5 9 11 5 19 -13 6 -14 18 -25 27 -25 8 0 15 -8 15 -18 0
-10 18 -42 40 -71 90 -120 120 -146 165 -143 18 2 36 -2 40 -8 3 -6 10 -8 14
-5 12 7 73 -74 65 -87 -4 -6 -3 -8 3 -5 11 7 102 -98 186 -212 46 -64 59 -76
192 -175 36 -27 65 -53 65 -58 0 -5 18 -32 39 -61 21 -29 65 -95 96 -147 72
-119 120 -192 165 -252 19 -25 46 -65 59 -87 14 -22 26 -39 27 -38 9 8 -27 92
-62 148 -22 35 -54 85 -70 111 -47 75 -174 250 -213 292 -26 28 -30 37 -16 32
125 -47 293 -55 460 -22 271 53 405 111 562 244 51 43 315 326 344 368 8 12
61 73 118 135 56 62 130 151 163 198 34 48 79 107 102 133 22 25 61 78 86 117
47 73 55 83 46 54z"/>
<path d="M5420 9238 c0 -2 31 -36 70 -77 83 -89 130 -176 160 -296 29 -116 29
-113 30 -297 1 -123 4 -158 14 -158 7 0 53 20 102 45 48 25 97 45 109 45 32 0
115 -30 157 -57 21 -12 79 -32 130 -43 51 -12 109 -31 128 -44 19 -12 48 -31
65 -42 l30 -19 -35 43 c-35 44 -140 126 -196 154 -16 8 -65 28 -109 43 -44 16
-83 34 -87 39 -5 7 -11 7 -20 -2 -16 -16 -31 -16 -25 1 3 9 -5 12 -30 9 l-35
-4 38 68 c26 47 33 66 21 61 -11 -4 -14 -2 -11 8 3 8 1 22 -4 32 -10 17 -11
17 -17 1 -4 -9 -12 -15 -19 -12 -8 3 -18 -7 -25 -23 -7 -15 -32 -50 -57 -76
l-44 -49 0 60 c0 132 -82 335 -184 454 -69 81 -156 157 -156 136z"/>
<path d="M4855 9186 c-144 -24 -269 -71 -445 -169 -103 -57 -265 -186 -314
-249 -14 -18 -45 -57 -68 -87 -24 -29 -48 -62 -54 -73 -6 -11 -15 -18 -20 -16
-4 2 -11 -10 -15 -25 l-8 -28 47 38 c26 21 74 65 107 97 62 61 283 231 373
286 74 45 265 129 347 152 49 14 99 20 165 19 59 0 90 3 81 8 -11 7 -7 10 15
13 l29 3 -37 18 c-51 24 -110 28 -203 13z"/>
<path d="M3962 8280 c-46 -32 -57 -37 -46 -19 4 7 -16 -1 -45 -16 -59 -32
-155 -126 -236 -230 -68 -88 -187 -293 -178 -308 4 -6 0 -8 -8 -5 -13 5 -16
-10 -17 -86 l-3 -91 55 101 c99 184 131 228 287 389 54 55 115 124 136 152 22
29 58 73 82 98 48 51 36 58 -27 15z"/>
<path d="M3071 8079 c0 -9 -16 -48 -35 -86 -19 -38 -42 -105 -51 -148 -25
-123 -63 -203 -112 -238 -21 -15 -30 -27 -24 -31 14 -9 31 1 31 20 0 8 5 14
10 14 14 0 13 -13 -2 -28 -7 -7 -9 -12 -6 -12 4 0 3 -12 -1 -28 -6 -19 -4 -31
5 -40 11 -10 19 -1 43 48 17 33 39 88 50 123 10 34 33 99 49 143 17 45 29 84
26 87 -3 3 2 35 11 71 9 36 15 78 12 93 -2 15 -5 21 -6 12z"/>
<path d="M2828 8014 c-24 -24 -57 -26 -42 -2 4 5 -4 4 -17 -3 l-24 -14 23 -3
c12 -2 22 -5 22 -8 0 -8 -37 -41 -56 -48 -19 -8 -19 -8 1 -16 19 -8 19 -9 -2
-9 -13 -1 -23 -6 -23 -12 0 -5 5 -7 10 -4 13 8 13 1 -4 -40 -8 -19 -19 -35
-24 -35 -6 0 -16 -15 -25 -32 -18 -41 -30 -111 -16 -103 5 4 9 12 9 20 0 8 6
18 13 22 16 10 77 102 77 116 0 6 7 17 15 26 33 35 114 155 109 163 -8 13 -18
9 -46 -18z"/>
<path d="M3670 6743 c-96 -16 -206 -69 -273 -131 -51 -49 -150 -173 -142 -180
2 -2 16 5 32 15 33 24 135 58 213 73 246 47 823 -46 967 -156 39 -29 52 -28
26 3 -38 44 -191 105 -323 129 -173 32 -410 64 -480 64 -96 0 -239 -25 -312
-55 -32 -12 -58 -19 -58 -14 0 4 33 42 73 83 113 116 216 155 412 156 177 0
459 -60 528 -113 42 -32 121 -145 185 -267 77 -146 97 -225 111 -435 11 -178
1 -310 -54 -685 -8 -58 -18 -148 -22 -202 -6 -91 -5 -97 16 -109 11 -8 21 -17
21 -22 0 -4 -5 -5 -12 -1 -7 4 -8 3 -4 -5 4 -6 13 -10 19 -9 7 1 26 -6 44 -15
36 -19 43 -21 43 -8 0 5 -12 14 -27 20 -52 22 -64 51 -63 153 0 51 5 122 10
158 29 183 60 578 53 675 -17 242 -43 349 -125 505 -70 134 -112 194 -174 248
-37 33 -63 45 -161 72 -65 18 -156 38 -203 46 -79 13 -262 17 -320 7z"/>
<path d="M5663 6720 c-195 -25 -359 -71 -413 -117 -32 -27 -163 -197 -173
-225 -9 -26 12 -23 108 17 109 45 246 79 419 105 328 48 531 35 701 -46 20 -9
38 -14 42 -11 7 8 -34 63 -97 131 -56 61 -130 109 -200 131 -66 20 -282 28
-387 15z m320 -21 c40 -6 90 -20 113 -30 47 -23 138 -101 185 -161 29 -36 30
-39 9 -25 -14 8 -63 26 -110 39 -162 43 -506 25 -796 -42 -76 -18 -216 -67
-256 -90 -25 -14 -22 -1 8 45 43 65 64 83 90 80 13 -1 21 2 18 6 -3 5 2 12 10
15 9 3 16 13 16 22 0 11 -8 8 -30 -13 -16 -16 -30 -24 -30 -18 0 16 81 87 115
100 67 27 229 60 370 77 70 8 221 5 288 -5z"/>
<path d="M5745 6695 c-5 -2 -46 -7 -90 -11 -68 -7 -75 -9 -45 -15 19 -3 28 -7
20 -8 -13 -1 -13 -2 0 -11 8 -5 20 -10 25 -10 6 0 5 4 -2 8 -8 5 -9 13 -3 22
7 10 10 11 10 3 0 -7 5 -13 11 -13 5 0 8 4 5 9 -3 5 14 11 39 13 44 3 45 2 45
-26 0 -28 1 -28 39 -23 28 3 41 1 45 -8 3 -9 -1 -12 -13 -10 -9 2 -23 -5 -29
-16 -8 -12 -8 -19 -2 -19 5 0 10 4 10 10 0 5 7 7 16 3 26 -10 2 -21 -71 -32
l-70 -10 90 6 c110 7 325 10 319 3 -3 -2 26 -11 63 -20 37 -9 79 -20 93 -25
22 -7 23 -6 11 9 -8 9 -16 14 -18 12 -3 -3 -19 11 -35 30 -22 25 -34 32 -41
25 -6 -6 -16 -11 -21 -11 -6 0 -4 5 4 10 12 7 11 13 -9 34 -23 25 -99 57 -130
55 -9 0 -1 -5 18 -10 42 -13 37 -18 -11 -11 -21 2 -38 10 -38 17 0 17 -195 34
-235 20z"/>
<path d="M5435 6591 c3 -5 -3 -16 -12 -23 -26 -19 -26 -38 -1 -38 18 0 20 -2
9 -12 -10 -11 -16 -9 -31 10 -22 27 -24 27 -46 5 -16 -16 -17 -16 -12 -1 4 9
1 19 -7 22 -9 3 -12 0 -8 -10 3 -9 -2 -14 -16 -14 -12 0 -21 5 -21 11 0 8 -5
7 -15 -1 -14 -11 -14 -15 0 -36 13 -20 13 -24 1 -24 -8 0 -16 3 -19 8 -2 4 -2
2 -1 -5 4 -16 -13 -27 -18 -11 -3 8 -12 4 -26 -10 -12 -12 -28 -22 -34 -22 -9
1 -8 5 3 13 8 7 18 21 22 32 4 12 -8 3 -28 -20 -19 -22 -35 -43 -35 -48 0 -4
17 0 38 9 90 39 243 80 366 98 68 11 90 19 108 40 9 12 17 16 18 9 0 -6 -6
-13 -12 -16 -7 -2 -10 -8 -5 -12 4 -5 16 1 27 13 11 12 27 19 35 16 8 -4 15
-2 15 4 0 12 -79 11 -98 -1 -7 -5 -10 -13 -7 -18 4 -5 2 -9 -4 -9 -5 0 -17 -3
-27 -7 -13 -5 -15 -3 -9 8 7 11 6 12 -6 3 -8 -6 -28 -14 -46 -17 -31 -6 -32
-6 -22 20 7 20 6 28 -3 35 -33 20 -50 0 -27 -32 9 -13 10 -12 5 2 -3 10 0 20
5 24 7 4 9 -4 7 -21 -4 -38 -37 -49 -63 -22 -18 18 -18 19 -2 14 11 -4 16 -3
12 3 -3 6 -1 10 4 10 17 0 13 17 -5 24 -8 3 -12 2 -9 -3z"/>
<path d="M3685 6713 c-78 -17 -155 -45 -149 -55 4 -7 3 -8 -4 -4 -19 11 -46
-10 -47 -35 0 -16 -7 -25 -20 -27 -20 -4 -20 -4 0 11 11 9 17 19 13 22 -8 8
-58 -32 -103 -84 -25 -29 -26 -32 -8 -23 78 42 337 64 483 41 118 -18 204 -25
243 -18 38 6 40 -6 2 -13 -11 -2 15 -9 58 -16 43 -7 116 -25 162 -40 l83 -28
-9 25 c-8 23 -7 24 4 6 17 -28 69 -77 75 -71 8 9 -57 109 -109 169 -34 38 -59
58 -82 62 -17 4 -47 12 -64 18 -24 8 -36 8 -44 0 -7 -7 -3 -9 17 -5 18 3 25 1
20 -6 -7 -12 37 -28 52 -18 5 3 18 -1 28 -10 18 -14 18 -15 -3 -9 -14 4 -23 2
-23 -4 0 -6 7 -11 16 -11 11 0 14 -6 9 -20 -4 -11 -2 -20 4 -20 10 0 15 13 13
32 -1 3 5 9 13 12 9 3 12 0 9 -9 -8 -20 14 -55 35 -55 10 0 24 -6 31 -14 10
-13 7 -13 -22 -3 -18 7 -35 15 -38 19 -3 3 -17 5 -32 5 -17 -1 -23 -6 -17 -11
15 -16 10 -26 -12 -26 -11 0 -18 4 -14 9 3 5 0 13 -6 17 -7 4 -9 3 -6 -3 3 -5
-1 -10 -10 -10 -12 0 -11 5 7 19 20 16 20 18 4 19 -16 0 -15 2 4 9 31 13 28
18 -8 14 -16 -2 -30 1 -30 7 0 6 -5 7 -11 4 -6 -5 -4 -12 8 -20 10 -7 15 -17
10 -21 -4 -4 -7 -2 -7 4 0 7 -7 12 -17 12 -14 0 -14 -3 3 -22 18 -20 18 -21 1
-15 -10 4 -21 7 -23 7 -2 0 -4 7 -4 15 0 8 -5 15 -11 15 -5 0 -7 -4 -4 -10 3
-5 2 -10 -4 -10 -5 0 -12 4 -15 9 -3 5 -19 7 -36 5 -33 -4 -35 -2 -20 27 12
22 35 26 26 4 -4 -11 1 -15 19 -15 14 0 25 4 25 10 0 5 -8 6 -17 3 -12 -5 -15
-2 -10 9 4 12 0 15 -19 13 -13 -1 -27 1 -29 5 -9 14 6 39 20 34 7 -3 16 -1 20
5 3 6 16 11 28 12 38 2 -62 29 -165 44 -91 14 -247 18 -293 8z"/>
<path d="M3960 6209 c-169 -18 -334 -81 -425 -161 -48 -42 -50 -45 -35 -68 7
-12 18 -8 62 21 64 43 123 71 205 98 68 23 87 26 79 12 -11 -17 -8 -226 3
-267 6 -22 22 -50 36 -62 31 -27 31 -23 0 36 -14 27 -25 62 -24 82 1 19 3 27
6 18 2 -10 9 -18 15 -18 6 0 16 -8 23 -17 11 -15 13 -13 20 15 3 17 4 36 0 42
-3 5 -4 10 -2 10 2 0 17 -21 33 -46 36 -57 79 -84 133 -84 35 0 47 6 72 32 16
18 29 36 29 40 0 5 7 8 15 8 9 0 15 9 15 24 0 14 4 27 8 30 13 8 -4 -83 -26
-139 -19 -49 -20 -50 -78 -63 -57 -12 -268 -11 -339 3 -29 5 -29 5 5 -11 44
-21 246 -29 330 -14 33 6 84 22 115 36 61 28 70 45 11 20 -40 -17 -42 -13 -22
41 27 74 38 134 34 182 -3 28 -2 55 2 60 8 13 66 -29 105 -76 15 -18 31 -33
37 -33 12 0 3 52 -19 102 -20 47 -113 108 -209 138 -70 21 -94 22 -214 9z"/>
<path d="M5540 6189 c-36 -11 -70 -21 -77 -22 -36 -9 -147 -177 -128 -195 4
-4 11 0 15 8 17 27 25 35 73 69 44 30 145 67 155 56 3 -2 -1 -24 -7 -49 -16
-65 -14 -200 4 -243 8 -20 13 -38 10 -41 -3 -3 -23 2 -46 11 -41 16 -41 16
-25 -2 54 -60 282 -66 476 -13 l35 10 -33 1 c-18 1 -42 -4 -54 -10 -28 -15
-29 -9 -12 41 28 79 40 158 34 220 l-6 60 36 -6 c40 -8 100 -40 162 -89 48
-38 68 -33 44 13 -34 66 -176 155 -301 187 -87 22 -271 19 -355 -6z m65 -263
c7 3 28 -11 47 -31 36 -40 66 -58 113 -69 l30 -7 -23 19 -23 18 34 -4 c27 -3
39 2 65 28 18 17 32 38 32 46 0 8 4 14 9 14 5 0 7 -9 4 -20 -3 -11 0 -20 6
-20 6 0 11 7 11 15 0 8 5 15 10 15 19 0 10 -47 -20 -108 -35 -70 -46 -74 -172
-75 -52 0 -83 4 -94 14 -29 24 -54 91 -53 144 1 28 3 42 6 33 2 -9 10 -15 18
-12z"/>
<path d="M3969 4755 c-4 -3 -15 -7 -25 -9 -29 -6 -114 -49 -114 -58 0 -5 19 1
43 13 75 39 123 46 237 36 136 -12 1172 -15 1313 -4 59 5 107 13 107 18 0 5
-15 7 -32 4 -37 -5 -536 -23 -643 -22 -120 0 -675 17 -780 22 -55 4 -103 3
-106 0z"/>
<path d="M5715 4495 c-14 -5 -377 -34 -545 -44 -193 -11 -767 -7 -1025 8 -199
12 -224 12 -259 -3 -32 -14 -37 -18 -26 -31 8 -10 10 -29 6 -53 -3 -21 -6
-101 -7 -178 0 -121 2 -146 19 -180 35 -69 36 -83 8 -90 -14 -3 -26 -11 -26
-16 0 -6 8 -7 18 -3 9 3 19 7 22 7 21 2 30 -5 30 -21 0 -35 42 -118 66 -131
14 -8 24 -22 24 -35 0 -11 16 -36 35 -55 20 -19 33 -40 30 -48 -2 -7 -1 -11 4
-8 4 3 20 -7 34 -22 57 -61 97 -110 97 -120 0 -6 5 -14 12 -18 8 -5 9 -2 5 9
-4 12 -1 17 9 17 10 0 14 -6 10 -15 -3 -8 -2 -14 2 -13 14 4 50 -26 45 -38 -3
-7 2 -23 11 -36 9 -12 16 -19 16 -14 0 5 11 1 24 -7 18 -12 32 -14 54 -7 23 6
34 5 42 -5 20 -24 93 -54 131 -53 21 0 48 -3 60 -7 19 -5 21 -4 9 4 -8 6 -25
11 -38 11 -14 0 -21 4 -17 11 5 7 -6 8 -32 5 -26 -4 -32 -4 -18 3 16 7 12 9
-18 9 -25 0 -46 7 -61 21 -19 18 -31 21 -62 15 -31 -5 -45 -1 -67 16 -19 15
-26 28 -22 40 4 13 -1 23 -17 31 -13 6 -27 18 -31 25 -4 8 -14 14 -21 14 -21
0 -216 222 -216 245 0 12 -12 28 -29 38 -16 9 -31 27 -34 39 -9 39 -32 101
-73 195 -26 61 -26 66 -22 220 5 155 11 193 29 193 5 0 14 -12 20 -27 70 -185
239 -372 419 -463 137 -70 337 -112 530 -112 280 1 492 76 702 248 94 78 169
189 235 351 l21 52 32 -12 32 -12 -4 -172 c-4 -138 -8 -176 -21 -197 -9 -14
-17 -36 -17 -50 0 -13 -7 -37 -15 -52 -8 -16 -15 -44 -15 -62 0 -41 -53 -148
-81 -162 -11 -6 -29 -30 -39 -53 -10 -23 -37 -62 -60 -86 -24 -24 -34 -38 -23
-33 30 16 93 90 93 108 0 9 15 31 33 48 40 39 83 119 92 171 3 22 9 51 12 65
5 24 6 24 14 5 7 -15 8 -10 4 16 -6 42 3 78 15 58 5 -8 9 -4 9 12 1 13 4 49 6
79 4 55 8 241 6 292 -1 22 -10 32 -43 48 -37 18 -112 26 -143 15z m11 -76 c-9
-58 -42 -146 -67 -184 -33 -47 -110 -75 -211 -75 -66 0 -79 -2 -69 -12 8 -9
43 -13 102 -13 l91 0 -70 -66 c-209 -200 -638 -275 -988 -173 -119 34 -297
133 -339 188 -27 36 -32 52 -13 40 19 -12 47 -14 111 -8 56 6 81 24 31 24 -35
0 -124 29 -156 52 -48 34 -146 223 -126 244 4 3 102 -2 220 -12 309 -24 944
-14 1318 21 74 7 143 13 154 14 16 1 18 -4 12 -40z"/>
<path d="M7078 5740 c-4 -14 -12 -72 -18 -130 -13 -117 -38 -210 -55 -210 -7
0 -18 -19 -24 -42 -14 -45 -71 -148 -82 -148 -15 0 -139 -153 -139 -171 0 -17
3 -18 20 -7 11 7 20 18 20 25 0 6 12 21 28 33 47 37 112 122 150 198 20 41 45
89 55 108 22 44 59 259 55 321 -3 38 -5 43 -10 23z"/>
<path d="M5745 2667 c-95 -146 -187 -301 -270 -457 -34 -63 -83 -152 -109
-198 -27 -46 -46 -86 -42 -89 3 -4 6 -1 6 6 0 7 4 10 9 7 8 -5 25 22 21 33 -1
2 2 7 7 10 4 3 25 38 46 78 21 40 55 101 77 135 22 35 63 108 91 163 65 127
86 163 177 308 41 65 73 120 71 122 -2 1 -40 -52 -84 -118z"/>
<path d="M4000 2747 c0 -9 51 -146 113 -304 63 -159 142 -373 177 -478 66
-198 76 -221 122 -269 35 -37 36 -26 3 30 -14 24 -54 127 -89 231 -87 252
-137 383 -184 484 -22 46 -61 136 -87 199 -50 123 -55 133 -55 107z"/>
</g>
</svg>
